<svg width="14" height="14" viewBox="0 0 14 14" fill="none" xmlns="http://www.w3.org/2000/svg">
<path fill-rule="evenodd" clip-rule="evenodd" d="M14 7C14 10.866 10.866 14 7 14C3.13401 14 0 10.866 0 7C0 3.13401 3.13401 0 7 0C10.866 0 14 3.13401 14 7ZM8.75 4.375C8.75 5.3415 7.96653 6.125 7 6.125C6.0335 6.125 5.25 5.3415 5.25 4.375C5.25 3.4085 6.0335 2.625 7 2.625C7.96653 2.625 8.75 3.4085 8.75 4.375ZM6.99994 7.875C5.23459 7.875 3.71345 8.92062 3.02202 10.4262C3.98478 11.543 5.40982 12.25 6.99998 12.25C8.59014 12.25 10.0152 11.5431 10.9779 10.4263C10.2865 8.92062 8.76531 7.875 6.99994 7.875Z" fill="white"/>
</svg>
