<svg width="18" height="23" viewBox="0 0 18 23" fill="none" xmlns="http://www.w3.org/2000/svg">
<path fill-rule="evenodd" clip-rule="evenodd" d="M13.401 0C13.5427 1.29899 13.0232 2.60452 12.2512 3.54234C11.4792 4.48075 10.2121 5.20959 8.97185 5.11329C8.80283 3.84001 9.42927 2.5115 10.1446 1.68148C10.9427 0.744176 12.2883 0.0448843 13.401 0ZM17.9954 16.2738C17.8629 16.22 15.0635 15.083 15.0331 11.7867C15.0085 9.03791 17.2228 7.68699 17.4128 7.57106C17.4168 7.56861 17.4199 7.56671 17.4221 7.56536C16.1229 5.65685 14.0997 5.39475 13.3789 5.36465C12.3258 5.25755 11.3041 5.662 10.4698 5.9923C9.94005 6.202 9.48585 6.38181 9.14707 6.38181C8.76909 6.38181 8.30208 6.19592 7.77808 5.98734C7.09198 5.71423 6.30819 5.40223 5.49862 5.41773C3.62152 5.44511 1.89213 6.51262 0.92441 8.19842C-1.02358 11.5931 0.427169 16.6221 2.32554 19.3765C3.25454 20.7231 4.36184 22.2398 5.81591 22.1846C6.46661 22.1589 6.92918 21.9612 7.40746 21.7568C7.95906 21.521 8.53156 21.2763 9.43767 21.2763C10.3033 21.2763 10.8507 21.5139 11.377 21.7424C11.8797 21.9607 12.3631 22.1705 13.0861 22.1572C14.5925 22.1293 15.5488 20.7827 16.4702 19.4312C17.5016 17.9184 17.9464 16.4522 17.9963 16.2878C17.998 16.2823 17.9992 16.2783 18 16.2757C17.9994 16.2755 17.9979 16.2748 17.9954 16.2738Z" fill="black"/>
</svg>
