<svg width="18" height="19" viewBox="0 0 18 19" fill="none" xmlns="http://www.w3.org/2000/svg">
<path d="M17.5 1.72656C17.5 1.45312 17.3828 1.21875 17.1875 1.02344C16.9922 0.867188 16.7578 0.75 16.5234 0.75H0.976562C0.664062 0.75 0.429688 0.867188 0.273438 1.02344C0.078125 1.21875 0 1.45312 0 1.72656V17.2734C0 17.5469 0.078125 17.7812 0.273438 17.9766C0.429688 18.1719 0.664062 18.25 0.976562 18.25H9.33594V11.4531H7.07031V8.83594H9.33594V6.88281C9.33594 5.78906 9.64844 4.92969 10.2734 4.30469C10.8984 3.71875 11.7188 3.40625 12.7344 3.40625C13.5156 3.40625 14.2188 3.44531 14.7656 3.48438V5.86719H13.3594C12.8516 5.86719 12.5 5.98438 12.3047 6.21875C12.1484 6.41406 12.0703 6.72656 12.0703 7.15625V8.83594H14.6875L14.3359 11.4531H12.0703V18.25H16.5234C16.7969 18.25 17.0312 18.1719 17.2266 17.9766C17.3828 17.7812 17.5 17.5469 17.5 17.2734V1.72656Z" fill="#344E86"/>
</svg>
