<svg width="15" height="14" viewBox="0 0 15 14" fill="none" xmlns="http://www.w3.org/2000/svg">
<path d="M0 1C0 0.44772 0.465426 0 1.03955 0H13.5141C14.0883 0 14.5537 0.44772 14.5537 1V3C14.5537 3.55228 14.0883 4 13.5141 4H1.03955C0.465426 4 0 3.55228 0 3V1Z" fill="#8C8C8C"/>
<path d="M0 7C0 6.44771 0.465426 6 1.03955 6H7.27684C7.85098 6 8.31638 6.44771 8.31638 7V13C8.31638 13.5523 7.85098 14 7.27684 14H1.03955C0.465426 14 0 13.5523 0 13V7Z" fill="#8C8C8C"/>
<path d="M11.4351 6C10.8609 6 10.3955 6.44771 10.3955 7V13C10.3955 13.5523 10.8609 14 11.4351 14H13.5142C14.0883 14 14.5537 13.5523 14.5537 13V7C14.5537 6.44771 14.0883 6 13.5142 6H11.4351Z" fill="#8C8C8C"/>
</svg>

