<svg width="14" height="14" viewBox="0 0 14 14" fill="none" xmlns="http://www.w3.org/2000/svg">
<path fill-rule="evenodd" clip-rule="evenodd" d="M3.5 0C3.01676 0 2.625 0.391755 2.625 0.875V1.75H1.75C0.783501 1.75 0 2.5335 0 3.5V12.25C0 13.2165 0.783501 14 1.75 14H12.25C13.2165 14 14 13.2165 14 12.25V3.5C14 2.5335 13.2165 1.75 12.25 1.75H11.375V0.875C11.375 0.391755 10.9833 0 10.5 0C10.0167 0 9.625 0.391755 9.625 0.875V1.75H4.375V0.875C4.375 0.391755 3.98324 0 3.5 0ZM3.5 4.375C3.01676 4.375 2.625 4.76676 2.625 5.25C2.625 5.73324 3.01676 6.125 3.5 6.125H10.5C10.9833 6.125 11.375 5.73324 11.375 5.25C11.375 4.76676 10.9833 4.375 10.5 4.375H3.5Z" fill="#8C8C8C"/>
</svg>
